<svg xmlns="http://www.w3.org/2000/svg" viewBox="0 0 188.7 50.74"><defs><style>.cls-1{fill:#f5f5f5;}</style></defs><title>Ativo 1</title><g id="Camada_2" data-name="Camada 2"><g id="Camada_2-2" data-name="Camada 2"><path class="cls-1" d="M115.09,0h0a8.51,8.51,0,0,0,5.33,5.33,8.51,8.51,0,0,0-5.33,5.33,8.51,8.51,0,0,0-5.33-5.33A8.51,8.51,0,0,0,115.09,0"/><path class="cls-1" d="M8.87,33h0a14.16,14.16,0,0,0,8.88,8.87,14.16,14.16,0,0,0-8.88,8.87A14.12,14.12,0,0,0,0,41.87,14.12,14.12,0,0,0,8.87,33"/><path class="cls-1" d="M27.59,41.87H24.92L11.13,13l-1.32-2.7a9.64,9.64,0,0,0-6-5h14l13,27.08Z"/><path class="cls-1" d="M36.49,41.87l.51-.2a6.1,6.1,0,0,0,3.34-5.52L38.65,8.73l1-3.4H52.44L50.79,6c-1.66.93-3,2.24-3,5.43l1.72,23.17a10.16,10.16,0,0,0,.94,4.53,5.73,5.73,0,0,0,3.07,2.54l.45.18Z"/><path class="cls-1" d="M67.1,27.33S62,28,58.93,30.59a7.74,7.74,0,0,0-2.6,5.4s-.78,6.58,6.33,6.58a7.86,7.86,0,0,0,6.89-4.15s-2.28.4-3.6-.75S64.4,33.94,64.4,33a7.24,7.24,0,0,1,2.7-5.69"/><path class="cls-1" d="M66,14.3l.74.23c2.61.82,4,3.52,4,6.17l.13,17.39a4.27,4.27,0,0,0,4.27,4.26h2c2.82,0,6.18-2.07,6.44-3.4-.82,0-3.15.16-3.7-1.42-1-2.73-.7-15.08-.7-15.08A8.15,8.15,0,0,0,71,14.3Z"/><path class="cls-1" d="M83.75,16.72l6-1a50.76,50.76,0,0,0,5.86-1.44V36.37c0,3.15,1.79,5,3.83,5.5H84.72a6,6,0,0,0,2.59-4.94V22.6c.14-2.29-.62-4.85-3.57-5.88"/><path class="cls-1" d="M108.16,16.81l6.24-1a41.19,41.19,0,0,0,5.74-1.5V36.37c0,3.15,1.78,5,3.83,5.5H108.74a6,6,0,0,0,2.6-4.93V22.25a5.67,5.67,0,0,0-3.18-5.44"/><path class="cls-1" d="M126,16.81l6.25-1a41.19,41.19,0,0,0,5.74-1.5V36.37c0,3.15,1.78,5,3.83,5.5H126.58a5.39,5.39,0,0,0,2.74-4.93V22.25c.14-2.29-.69-4.57-3.33-5.44"/><path class="cls-1" d="M139.66,18s2.15-3.68,7.91-3.68c6.85,0,7.05,7.53,7.05,7.53v14c0,2.69,1.3,6.1,3.37,6.1H142.84a5.93,5.93,0,0,0,3.28-4.73l.07-14.59c0-2.88-3.26-5.1-6.1-4.65Z"/><path class="cls-1" d="M172.47,14.28c-2.92,0-12.77,3.11-12.77,13.8,0,10.25,8.62,14.4,12.5,14.4a13.92,13.92,0,0,1-2.87-5.77,28.6,28.6,0,0,1-.38-5.06l.09-9s.41-6.62,3.43-8.32"/><path class="cls-1" d="M175.93,14.28c2.92,0,12.77,3.11,12.77,13.8,0,10.25-8.61,14.4-12.5,14.4a13.93,13.93,0,0,0,2.88-5.77,28.6,28.6,0,0,0,.38-5.06l-.1-9s-.4-6.62-3.43-8.32"/><path class="cls-1" d="M105.84,18.63a4.35,4.35,0,1,1-4.35-4.35,4.35,4.35,0,0,1,4.35,4.35"/><path class="cls-1" d="M64.72,21.22c0,2.31-1.82,3.76-4.23,3.76a4,4,0,0,1-4.22-4c0-3.52,5.68-5.66,5.68-5.66a11.28,11.28,0,0,0-1.46,2,4,4,0,0,1,4.23,4"/></g></g></svg>